# xmcd
#
# Track frame offsets:
#	150
#	10539
#	33974
#	50642
#	70904
#	90282
#	106293
#	124413
#	138232
#	160206
#	179006
#	198535
#	223823
#	238603
#	281108
#	294355
#
# Disc length: 4133 seconds
#
# Revision: 1
# Processed by: cddbd v1.5.2PL0 Copyright (c) Steve Scherf et al.
# Submitted via: audiograbber 1.83.01
#
DISCID=eb102310
DTITLE=Big Papa and the TCB - 12 Gauge Insurance Plan
DYEAR=2009
DGENRE=Blues
TTITLE0=Who's Yo Daddy
TTITLE1=Another Man's Wife
TTITLE2=Money
TTITLE3=The Fool You Left Behind
TTITLE4=Hey There Charlie
TTITLE5=All I Need
TTITLE6=Slow Down
TTITLE7=Another Ride
TTITLE8=Saved By You
TTITLE9=Easy Does It
TTITLE10=Little Miss Mischief
TTITLE11=It Wasn't Me
TTITLE12=Ain't No Thang
TTITLE13=Dirty Bird Blues
TTITLE14=Lovin' Man
TTITLE15=Go Big Papa
EXTD=
EXTT0=
EXTT1=
EXTT2=
EXTT3=
EXTT4=
EXTT5=
EXTT6=
EXTT7=
EXTT8=
EXTT9=
EXTT10=
EXTT11=
EXTT12=
EXTT13=
EXTT14=
EXTT15=
PLAYORDER=
